<svg width="20" height="20" viewBox="0 0 20 20" fill="none" xmlns="http://www.w3.org/2000/svg">
<path fill-rule="evenodd" clip-rule="evenodd" d="M17.4732 2.02434C17.0943 2.09174 16.5571 2.26804 15.6969 2.55477L6.63453 5.57557C5.00394 6.1191 3.8521 6.50423 3.0585 6.85578C2.66515 7.03004 2.40913 7.17525 2.2467 7.29743C2.1073 7.40229 2.07547 7.46127 2.07209 7.46837C1.97596 7.70764 1.97597 7.97479 2.07212 8.21406C2.06869 8.20552 2.08785 8.26543 2.2467 8.38492C2.40913 8.5071 2.66514 8.65232 3.0585 8.82657C3.8521 9.17812 5.00394 9.56325 6.63453 10.1068C6.67162 10.1191 6.70842 10.1314 6.74494 10.1435C7.27953 10.3209 7.75126 10.4775 8.14444 10.7724C8.37176 10.9429 8.5737 11.1449 8.7442 11.3722C9.03912 11.7654 9.1957 12.2371 9.37314 12.7717C9.38526 12.8082 9.39748 12.845 9.40984 12.8821C9.95337 14.5127 10.3385 15.6645 10.6901 16.4581C10.8643 16.8515 11.0095 17.1075 11.1317 17.2699C11.2512 17.4288 11.3111 17.4479 11.3026 17.4445C11.5419 17.5407 11.809 17.5407 12.0483 17.4445C12.0398 17.4479 12.0997 17.4288 12.2192 17.2699C12.3414 17.1075 12.4866 16.8515 12.6608 16.4581C13.0124 15.6645 13.3975 14.5127 13.941 12.8821L16.9619 3.81968C17.2486 2.95951 17.4249 2.42228 17.4923 2.04338C17.4937 2.03549 17.495 2.02781 17.4963 2.02035C17.4888 2.0216 17.4811 2.02293 17.4732 2.02434ZM17.7322 2.00122C17.732 2.0014 17.7287 2.00113 17.723 1.99987C17.7295 2.00041 17.7324 2.00104 17.7322 2.00122ZM17.5168 1.79364C17.5155 1.7879 17.5152 1.78461 17.5154 1.78441C17.5156 1.7842 17.5162 1.78706 17.5168 1.79364ZM17.123 0.0552496C17.674 -0.0427677 18.4285 -0.071955 19.0085 0.508101C19.5886 1.08816 19.5594 1.84267 19.4614 2.39366C19.3651 2.93509 19.1386 3.61421 18.8831 4.3805L18.8592 4.45214L15.8384 13.5146L15.8199 13.5702C15.299 15.1327 14.8845 16.3764 14.4894 17.2682C14.1179 18.107 13.6343 18.9626 12.7941 19.3003C12.0762 19.5887 11.2747 19.5887 10.5568 19.3003C9.71656 18.9626 9.23302 18.107 8.86144 17.2682C8.4664 16.3764 8.05186 15.1328 7.53104 13.5702L7.51248 13.5145C7.27636 12.8062 7.21878 12.6716 7.14427 12.5723C7.08744 12.4965 7.02012 12.4292 6.94435 12.3723C6.84502 12.2978 6.71043 12.2403 6.00207 12.0041L5.94641 11.9856C4.38388 11.4648 3.14022 11.0502 2.24846 10.6552C1.40965 10.2836 0.554026 9.80007 0.216362 8.95982C-0.0721205 8.24195 -0.0721205 7.4404 0.216362 6.72254C0.554026 5.88229 1.40965 5.39875 2.24846 5.02717C3.14022 4.63213 4.38388 4.21759 5.94642 3.69676L6.00208 3.67821L15.0645 0.657403L15.1361 0.633521C15.9024 0.378011 16.5815 0.151566 17.123 0.0552496Z" fill="black"/>
</svg>
